<svg id="Capa_1" data-name="Capa 1" xmlns="http://www.w3.org/2000/svg" viewBox="0 0 300 300"><defs><style>.cls-1{fill:#e56125;}</style></defs><path class="cls-1" d="M115.3,139.93V222a13.3,13.3,0,0,0,12.62,9.14c6.12,0,10.77-4.15,12.31-9.77l.5-34.15-.17-13.35-.05-14.14V139.24h66v71.23s-.49,7.82-.49,14.77a77.91,77.91,0,0,1-78.09,71.55A78.92,78.92,0,0,1,49,217.86H69.14a58.52,58.52,0,0,0,116.39,9c0-9.3.49-18.6.49-18.6V159.74h-24.8l-.09,58.12a33.22,33.22,0,0,1-39.07,32.69,32.68,32.68,0,0,1-6.76-2,33.21,33.21,0,0,1-20.49-28.16V3.1H202.65a55.88,55.88,0,0,1-1.43,111.14H160.55v0H140.06V68.55l.19-10c0-3.6,0-10.53,0-10.53h54.4l2.9.55a10.16,10.16,0,0,1,0,19.94h-37V93.74H200.2A35.37,35.37,0,0,0,206,24.61c-7-2-14.06-1-21.22-1H115.31V139.93"/></svg>