<svg id="Capa_1" data-name="Capa 1" xmlns="http://www.w3.org/2000/svg" viewBox="0 0 150.06 150.06"><defs><style>.cls-1{fill:#e56125;}</style></defs><path class="cls-1" d="M58,70v40.83a6.6,6.6,0,0,0,6.27,4.54,6.33,6.33,0,0,0,6.13-4.86l.24-17-.08-6.65,0-7V69.65h32.83v35.43s-.25,3.89-.25,7.35A38.76,38.76,0,0,1,64.29,148,39.27,39.27,0,0,1,25,108.76h10A29.11,29.11,0,0,0,93,113.25c0-4.63.25-9.25.25-9.25V79.85H80.86l0,28.91A16.51,16.51,0,0,1,61.38,125,16.28,16.28,0,0,1,58,124a16.53,16.53,0,0,1-10.2-14V1.92h53.65a27.8,27.8,0,0,1-.71,55.29H80.53v0H70.33V34.48l.1-5V24.28H97.49l1.45.28a5.05,5.05,0,0,1,0,9.92H80.53V47h19.72a17.6,17.6,0,0,0,2.86-34.39c-3.5-1-7-.51-10.56-.51H58V70"/></svg>